<svg width="84" height="32" viewBox="0 0 84 32" fill="none" xmlns="http://www.w3.org/2000/svg">
<g clip-path="url(#clip0_18068_38823)">
<path d="M28.2793 27.1664C28.0814 27.2024 27.7847 27.2474 27.3891 27.3013C27.0114 27.3732 26.6247 27.4092 26.2291 27.4092C25.8335 27.4092 25.4738 27.3822 25.1501 27.3283C24.8443 27.2743 24.5836 27.1664 24.3678 27.0046C24.152 26.8427 23.9811 26.6269 23.8552 26.3572C23.7473 26.0694 23.6934 25.7007 23.6934 25.2511V14.2719C23.8912 14.236 24.1789 14.191 24.5566 14.137C24.9522 14.0651 25.3479 14.0291 25.7435 14.0291C26.1392 14.0291 26.4899 14.0561 26.7956 14.1101C27.1193 14.164 27.3891 14.2719 27.6049 14.4338C27.8207 14.5956 27.9825 14.8204 28.0904 15.1082C28.2163 15.3779 28.2793 15.7376 28.2793 16.1872V27.1664Z" fill="white"/>
<path d="M37.2144 13.6785C38.2935 13.6785 39.2916 13.8223 40.2088 14.1101C41.1439 14.3798 41.9442 14.8025 42.6096 15.3779C43.275 15.9534 43.7966 16.6818 44.1742 17.563C44.5519 18.4262 44.7407 19.4603 44.7407 20.6652C44.7407 21.8162 44.5789 22.8233 44.2551 23.6865C43.9314 24.5498 43.4728 25.2781 42.8794 25.8716C42.2859 26.4471 41.5665 26.8787 40.7213 27.1664C39.894 27.4542 38.9679 27.598 37.9428 27.598C37.1695 27.598 36.4501 27.4812 35.7847 27.2474V31.7254C35.6049 31.7793 35.3171 31.8333 34.9215 31.8872C34.5258 31.9592 34.1212 31.9951 33.7075 31.9951C33.3119 31.9951 32.9522 31.9682 32.6285 31.9142C32.3228 31.8602 32.062 31.7523 31.8462 31.5905C31.6304 31.4286 31.4685 31.2038 31.3606 30.9161C31.2527 30.6463 31.1988 30.2866 31.1988 29.8371V16.8886C31.1988 16.403 31.2977 16.0074 31.4955 15.7017C31.7113 15.3959 31.9991 15.1172 32.3588 14.8654C32.9163 14.5057 33.6086 14.218 34.4359 14.0022C35.2632 13.7864 36.1893 13.6785 37.2144 13.6785ZM37.2684 23.9833C39.1207 23.9833 40.0469 22.8773 40.0469 20.6652C40.0469 19.5143 39.8131 18.66 39.3455 18.1025C38.8959 17.545 38.2395 17.2663 37.3763 17.2663C37.0346 17.2663 36.7289 17.3112 36.4591 17.4011C36.1893 17.4731 35.9555 17.563 35.7577 17.6709V23.6056C35.9735 23.7135 36.2073 23.8034 36.4591 23.8754C36.7109 23.9473 36.9806 23.9833 37.2684 23.9833Z" fill="white"/>
<path d="M51.6455 27.1664C51.4477 27.2024 51.1509 27.2474 50.7553 27.3013C50.3776 27.3732 49.991 27.4092 49.5953 27.4092C49.1997 27.4092 48.84 27.3822 48.5163 27.3283C48.2106 27.2743 47.9498 27.1664 47.734 27.0046C47.5182 26.8427 47.3473 26.6269 47.2214 26.3572C47.1135 26.0694 47.0596 25.7007 47.0596 25.2511V9.60509C47.2574 9.56912 47.5452 9.52416 47.9228 9.47021C48.3185 9.39827 48.7141 9.3623 49.1098 9.3623C49.5054 9.3623 49.8561 9.38928 50.1618 9.44323C50.4855 9.49718 50.7553 9.60509 50.9711 9.76694C51.1869 9.9288 51.3488 10.1536 51.4567 10.4413C51.5826 10.7111 51.6455 11.0708 51.6455 11.5204V27.1664Z" fill="white"/>
<path d="M54.5393 14.2719C54.7191 14.218 54.9979 14.164 55.3756 14.1101C55.7712 14.0561 56.1758 14.0291 56.5895 14.0291C56.9851 14.0291 57.3358 14.0561 57.6415 14.1101C57.9652 14.164 58.235 14.2719 58.4508 14.4338C58.6666 14.5956 58.8285 14.8204 58.9364 15.1082C59.0623 15.3779 59.1252 15.7376 59.1252 16.1872V21.987C59.1252 22.7244 59.3051 23.2549 59.6647 23.5786C60.0244 23.8844 60.5459 24.0372 61.2293 24.0372C61.643 24.0372 61.9757 24.0013 62.2274 23.9293C62.4972 23.8574 62.704 23.7854 62.8479 23.7135V14.2719C63.0277 14.218 63.3065 14.164 63.6842 14.1101C64.0798 14.0561 64.4844 14.0291 64.8981 14.0291C65.2937 14.0291 65.6444 14.0561 65.9501 14.1101C66.2738 14.164 66.5436 14.2719 66.7594 14.4338C66.9752 14.5956 67.1371 14.8204 67.245 15.1082C67.3709 15.3779 67.4338 15.7376 67.4338 16.1872V24.3879C67.4338 25.2871 67.0561 25.9615 66.3008 26.4111C65.6714 26.8068 64.9161 27.1035 64.0348 27.3013C63.1716 27.5171 62.2274 27.625 61.2024 27.625C60.2312 27.625 59.332 27.5171 58.5048 27.3013C57.6955 27.0855 56.9941 26.7528 56.4006 26.3032C55.8072 25.8536 55.3486 25.2781 55.0249 24.5767C54.7012 23.8574 54.5393 22.9942 54.5393 21.987V14.2719Z" fill="white"/>
<path d="M70.2941 9.63206C70.4739 9.57811 70.7617 9.52416 71.1573 9.47021C71.553 9.39827 71.9576 9.3623 72.3713 9.3623C72.7669 9.3623 73.1176 9.38928 73.4233 9.44323C73.747 9.49718 74.0168 9.60509 74.2326 9.76694C74.4484 9.9288 74.6103 10.1536 74.7182 10.4413C74.8261 10.7111 74.88 11.0708 74.88 11.5204V14.164C75.3296 13.9842 75.7522 13.8583 76.1479 13.7864C76.5615 13.7144 77.0111 13.6785 77.4967 13.6785C78.3599 13.6785 79.1782 13.8313 79.9515 14.137C80.7248 14.4428 81.4082 14.8924 82.0017 15.4858C82.5951 16.0613 83.0627 16.7807 83.4044 17.6439C83.7461 18.5072 83.917 19.5053 83.917 20.6383C83.917 21.8072 83.7371 22.8323 83.3774 23.7135C83.0357 24.5767 82.5502 25.2961 81.9207 25.8716C81.2913 26.4471 80.518 26.8877 79.6008 27.1934C78.7016 27.4812 77.7035 27.625 76.6065 27.625C75.4195 27.625 74.4124 27.4812 73.5852 27.1934C72.7579 26.9236 72.0565 26.582 71.481 26.1683C70.6898 25.6108 70.2941 24.8915 70.2941 24.0102V9.63206ZM76.6065 24.0102C77.4337 24.0102 78.0722 23.7315 78.5218 23.174C78.9894 22.5985 79.2231 21.7533 79.2231 20.6383C79.2231 19.5053 78.9894 18.66 78.5218 18.1025C78.0542 17.545 77.4247 17.2663 76.6335 17.2663C76.2738 17.2663 75.9591 17.3022 75.6893 17.3742C75.4375 17.4461 75.1588 17.554 74.853 17.6979V23.5786C75.0509 23.7045 75.2847 23.8124 75.5544 23.9023C75.8422 23.9743 76.1928 24.0102 76.6065 24.0102Z" fill="white"/>
<path d="M6.56436 14.2232C6.60162 14.2018 6.63888 14.1805 6.67728 14.1585C6.70542 14.1425 6.73357 14.1264 6.76256 14.1099C7.39223 15.197 8.02151 16.2844 8.65036 17.372C8.9424 17.877 9.23456 18.382 9.52701 18.8868C9.78214 19.3272 10.037 19.7678 10.2917 20.2085C10.4263 20.4415 10.561 20.6744 10.696 20.9071C10.8235 21.127 10.9508 21.347 11.0777 21.5672C11.124 21.6472 11.1703 21.7272 11.2168 21.8071C11.6272 22.5132 12.0487 23.2577 12.3005 24.0231C12.3139 24.0627 12.3274 24.1023 12.3413 24.1432C12.3802 24.2589 12.4178 24.3747 12.4548 24.4907C12.4857 24.5868 12.4857 24.5868 12.5172 24.6849C12.8125 25.6623 12.9084 26.649 12.8493 27.5577C12.8476 27.6436 12.8462 27.7295 12.8451 27.8157C12.8197 28.7172 12.5148 29.4997 12.1819 30.2006C12.1626 30.2439 12.1626 30.2439 12.143 30.2881C12.0139 30.5601 11.826 30.7639 11.6387 30.9734C11.585 31.0343 11.5328 31.0967 11.4806 31.1594C11.2902 31.3774 11.0603 31.5223 10.8162 31.6616C10.7558 31.6962 10.7558 31.6962 10.6941 31.7315C10.6636 31.7489 10.6331 31.7662 10.6017 31.7841C9.94605 30.652 9.29083 29.5198 8.63604 28.3873C8.33197 27.8614 8.02778 27.3355 7.7233 26.8099C7.45777 26.3514 7.19246 25.8929 6.92743 25.4342C6.78723 25.1915 6.64691 24.9489 6.50632 24.7065C6.37369 24.4778 6.24137 24.2489 6.10927 24.0199C6.06103 23.9364 6.01268 23.8529 5.96422 23.7696C4.94229 22.0111 4.45393 20.3005 4.47094 18.4837C4.47133 18.4294 4.47173 18.375 4.47213 18.319C4.48315 17.8858 4.54958 17.5036 4.64357 17.1143C4.6608 17.0426 4.67691 16.9702 4.69278 16.8977C4.97813 15.7006 5.65251 14.7441 6.56436 14.2232Z" fill="white"/>
<path d="M25.5445 10.2063C25.6958 10.2693 25.6958 10.4837 25.5445 10.5467L20.746 12.5456C20.6246 12.5962 20.4907 12.507 20.4907 12.3754L20.4907 8.37759C20.4907 8.24603 20.6246 8.15679 20.746 8.20738L25.5445 10.2063Z" fill="white"/>
<path d="M13.5444 22.0567C15.7947 21.5633 17.837 20.3853 19.3909 18.6845C20.9448 16.9838 21.934 14.8436 22.2227 12.558C22.5113 10.2725 22.0853 7.95356 21.0031 5.91984C19.9209 3.88612 18.2356 2.23733 16.1787 1.19994C14.1217 0.162543 11.794 -0.212578 9.51534 0.126099C7.23664 0.464776 5.11867 1.50064 3.45235 3.09141C1.78603 4.68218 0.653083 6.74984 0.209117 9.01039C-0.234848 11.2709 0.031946 13.6135 0.972856 15.7163C4.89796 14.7326 4.63267 12.6122 4.89796 9.93126C5.15175 8.63903 5.7994 7.45706 6.75194 6.5477C7.70449 5.63835 8.91521 5.0462 10.2178 4.8526C11.5204 4.65899 12.851 4.87343 14.0269 5.46645C15.2027 6.05948 16.1661 7.002 16.7848 8.16456C17.4034 9.32713 17.6469 10.6527 17.4819 11.9593C17.3169 13.2658 16.7514 14.4892 15.8631 15.4614C12.1233 18.6845 13.5444 22.0567 13.5444 22.0567Z" fill="white"/>
</g>
<defs>
<clipPath id="clip0_18068_38823">
<rect width="83.9171" height="31.9904" fill="white" transform="translate(0 0.00488281)"/>
</clipPath>
</defs>
</svg>
