<svg width="467" height="727" viewBox="0 0 467 727" fill="none" xmlns="http://www.w3.org/2000/svg">
<g clip-path="url(#clip0_18069_17722)">
<rect width="467" height="727" rx="40" fill="#DBCFFC"/>
<g clip-path="url(#clip1_18069_17722)">
<path d="M137 -103C122.566 -103 111.156 -90.7643 112.164 -76.3652L127.361 140.73L-15.4024 -23.5252C-24.8714 -34.4197 -41.5909 -35.0041 -51.7975 -24.7975C-62.0041 -14.5909 -61.4197 2.12856 -50.5252 11.5976L113.73 154.361L-103.365 139.164C-117.764 138.157 -130 149.566 -130 164C-130 178.434 -117.764 189.844 -103.365 188.836L113.73 173.639L-50.5252 316.402C-61.4197 325.871 -62.0041 342.591 -51.7975 352.797C-41.5909 363.004 -24.8714 362.42 -15.4024 351.525L127.361 187.27L112.164 404.365C111.157 418.764 122.566 431 137 431C151.434 431 162.844 418.764 161.836 404.365L146.639 187.271L289.402 351.525C298.871 362.42 315.591 363.004 325.797 352.798C336.004 342.591 335.42 325.871 324.525 316.402L160.27 173.639L377.365 188.836C391.764 189.844 404 178.434 404 164C404 149.566 391.764 138.156 377.365 139.164L160.27 154.361L324.525 11.5975C335.42 2.12856 336.004 -14.5909 325.798 -24.7975C315.591 -35.0041 298.871 -34.4197 289.402 -23.5252L146.639 140.73L161.836 -76.3652C162.844 -90.7643 151.434 -103 137 -103Z" fill="#EDE7FD"/>
</g>
<path d="M517.734 559.317C500.221 586.528 514.912 622.876 546.413 630.278C514.789 637.135 499.474 673.225 516.515 700.733C489.305 683.221 452.956 697.912 445.555 729.412C438.697 697.789 402.607 682.474 375.099 699.515C392.611 672.305 377.921 635.956 346.42 628.555C378.044 621.697 393.358 585.607 376.317 558.099C403.528 575.611 439.877 560.921 447.278 529.42C454.135 561.044 490.226 576.358 517.734 559.317Z" fill="#EDE7FD"/>
</g>
<defs>
<clipPath id="clip0_18069_17722">
<rect width="467" height="727" rx="40" fill="white"/>
</clipPath>
<clipPath id="clip1_18069_17722">
<rect width="534" height="534" fill="white" transform="translate(-130 -103)"/>
</clipPath>
</defs>
</svg>
