<svg width="390" height="279" viewBox="0 0 390 279" fill="none" xmlns="http://www.w3.org/2000/svg">
<g clip-path="url(#clip0_18192_107822)">
<rect width="390" height="279" rx="21.403" fill="#DBCFFC"/>
<g clip-path="url(#clip1_18192_107822)">
<path d="M285.865 -55.1128C278.142 -55.1128 272.037 -48.5658 272.576 -40.8611L280.708 75.301L204.318 -12.5878C199.252 -18.4171 190.306 -18.7299 184.844 -13.2685C179.383 -7.80722 179.696 1.13894 185.525 6.20557L273.414 82.5949L157.252 74.4635C149.547 73.9242 143 80.0289 143 87.7524C143 95.4759 149.547 101.581 157.252 101.041L273.414 92.91L185.525 169.299C179.696 174.366 179.383 183.312 184.844 188.773C190.306 194.235 199.252 193.922 204.318 188.093L280.708 100.204L272.576 216.366C272.037 224.071 278.142 230.618 285.865 230.618C293.589 230.618 299.693 224.071 299.154 216.366L291.023 100.204L367.412 188.093C372.479 193.922 381.425 194.235 386.886 188.773C392.347 183.312 392.035 174.366 386.205 169.299L298.317 92.91L414.479 101.041C422.183 101.581 428.73 95.4759 428.73 87.7524C428.73 80.0289 422.183 73.9242 414.479 74.4635L298.317 82.5949L386.205 6.20557C392.035 1.13894 392.348 -7.80722 386.886 -13.2685C381.425 -18.7299 372.479 -18.4171 367.412 -12.5878L291.023 75.301L299.154 -40.8611C299.693 -48.5658 293.589 -55.1128 285.865 -55.1128Z" fill="#EDE7FD"/>
</g>
<path d="M38.8232 177.155C29.4541 191.712 37.3135 211.159 54.1665 215.119C37.2478 218.787 29.0544 238.096 38.1713 252.812C23.6138 243.443 4.16724 251.303 0.207505 268.156C-3.46125 251.237 -22.7695 243.044 -37.4863 252.161C-28.1172 237.603 -35.9766 218.156 -52.8296 214.197C-35.9109 210.528 -27.7176 191.22 -36.8344 176.503C-22.2769 185.872 -2.83035 178.013 1.12938 161.16C4.79814 178.078 24.1064 186.272 38.8232 177.155Z" fill="#EDE7FD"/>
</g>
<defs>
<clipPath id="clip0_18192_107822">
<rect width="390" height="279" rx="21.403" fill="white"/>
</clipPath>
<clipPath id="clip1_18192_107822">
<rect width="285.73" height="285.73" fill="white" transform="translate(143 -55.1128)"/>
</clipPath>
</defs>
</svg>
