<svg width="18" height="18" viewBox="0 0 18 18" fill="none" xmlns="http://www.w3.org/2000/svg">
<path d="M0.363539 0.284169C0.107963 0.558354 -0.0210855 0.90985 0.00283269 1.26665V16.7329C-0.021155 17.0897 0.107902 17.4412 0.363539 17.7154L0.421215 17.7658L10.0772 9.10198V8.89757L0.421215 0.233398L0.363539 0.284169Z" fill="url(#paint0_linear_18075_17773)"/>
<path d="M13.2966 11.9913L10.0781 9.10216V8.89775L13.2974 6.00928L13.3699 6.04641L17.1834 7.99059C18.2727 8.54585 18.2727 9.45441 17.1834 10.01L13.3699 11.9542L13.2966 11.9913Z" fill="url(#paint1_linear_18075_17773)"/>
<path d="M13.3687 11.9539L10.0769 9L0.363281 17.7156C0.58523 17.8912 0.868664 17.9916 1.16447 17.9995C1.46028 18.0073 1.74983 17.9221 1.98295 17.7585L13.3687 11.9539Z" fill="url(#paint2_linear_18075_17773)"/>
<path d="M13.3687 6.04613L1.98295 0.241482C1.74983 0.0779065 1.46028 -0.00734553 1.16447 0.000496562C0.868664 0.00833865 0.58523 0.108781 0.363281 0.28442L10.0769 9.00006L13.3687 6.04613Z" fill="url(#paint3_linear_18075_17773)"/>
<path opacity="0.2" d="M13.2962 11.8887L1.98295 17.6562C1.75881 17.8093 1.48524 17.8928 1.20354 17.8942C0.921844 17.8955 0.6473 17.8146 0.421347 17.6637L0.363281 17.7158L0.420957 17.7662L0.421347 17.7658C0.647262 17.9169 0.921821 17.9978 1.20354 17.9965C1.48527 17.9951 1.75885 17.9115 1.98295 17.7584L13.3687 11.9537L13.2962 11.8887Z" fill="black"/>
<path opacity="0.12" d="M0.363521 17.6138C0.107969 17.3396 -0.0210755 16.9881 0.00281477 16.6313V16.7335C-0.0210898 17.0903 0.107957 17.4418 0.363521 17.716L0.421586 17.6639L0.363521 17.6138Z" fill="black"/>
<path opacity="0.12" d="M17.1829 9.90723L13.2969 11.8885L13.3694 11.9536L17.1829 10.0094C17.4072 9.92205 17.6013 9.78234 17.745 9.60481C17.8887 9.42728 17.9767 9.21842 17.9999 9C17.9517 9.1978 17.8528 9.38279 17.7109 9.54028C17.5691 9.69776 17.3883 9.8234 17.1829 9.90723Z" fill="black"/>
<path opacity="0.25" d="M1.98233 0.343923L17.1816 8.0924C17.387 8.17621 17.5679 8.3019 17.7097 8.45945C17.8516 8.61701 17.9505 8.80209 17.9986 8.99998C17.9756 8.78147 17.8876 8.57251 17.7439 8.3949C17.6002 8.21729 17.406 8.07753 17.1816 7.99023L1.98233 0.241752C0.893041 -0.313579 0.00195312 0.147693 0.00195312 1.26717V1.36934C0.00195312 0.249934 0.893041 -0.211338 1.98233 0.343923Z" fill="white"/>
<defs>
<linearGradient id="paint0_linear_18075_17773" x1="9.2209" y1="1.10357" x2="-2.44676" y2="14.1073" gradientUnits="userSpaceOnUse">
<stop stop-color="#00A0FF"/>
<stop offset="0.00657" stop-color="#00A1FF"/>
<stop offset="0.2601" stop-color="#00BEFF"/>
<stop offset="0.5122" stop-color="#00D2FF"/>
<stop offset="0.7604" stop-color="#00DFFF"/>
<stop offset="1" stop-color="#00E3FF"/>
</linearGradient>
<linearGradient id="paint1_linear_18075_17773" x1="18.6016" y1="9.00031" x2="-0.257428" y2="9.00031" gradientUnits="userSpaceOnUse">
<stop stop-color="#FFE000"/>
<stop offset="0.4087" stop-color="#FFBD00"/>
<stop offset="0.7754" stop-color="#FFA500"/>
<stop offset="1" stop-color="#FF9C00"/>
</linearGradient>
<linearGradient id="paint2_linear_18075_17773" x1="11.58" y1="10.605" x2="-4.24222" y2="28.2391" gradientUnits="userSpaceOnUse">
<stop stop-color="#FF3A44"/>
<stop offset="1" stop-color="#C31162"/>
</linearGradient>
<linearGradient id="paint3_linear_18075_17773" x1="-2.08253" y1="-4.86386" x2="4.98277" y2="3.01049" gradientUnits="userSpaceOnUse">
<stop stop-color="#32A071"/>
<stop offset="0.0685" stop-color="#2DA771"/>
<stop offset="0.4762" stop-color="#15CF74"/>
<stop offset="0.8009" stop-color="#06E775"/>
<stop offset="1" stop-color="#00F076"/>
</linearGradient>
</defs>
</svg>
