<svg width="336" height="335" viewBox="0 0 336 335" fill="none" xmlns="http://www.w3.org/2000/svg">
<path d="M166.307 248.077L161.72 250.488L162.596 245.38L158.883 241.762L164.012 241.017L166.307 236.368L168.601 241.017L173.731 241.762L170.019 245.38L170.895 250.488L166.307 248.077Z" fill="#DBCFFC"/>
<path d="M188.601 10.7319L184.996 12.6267L185.685 8.61286L182.768 5.77033L186.798 5.18466L188.601 1.53223L190.404 5.18466L194.434 5.77033L191.517 8.61286L192.206 12.6267L188.601 10.7319Z" fill="#DBCFFC"/>
<g clip-path="url(#clip0_18097_66211)">
<path d="M190.984 195.516C189.604 195.516 188.484 194.397 188.484 193.016C188.484 191.635 189.604 190.516 190.984 190.516C192.365 190.516 193.484 191.635 193.484 193.016C193.484 194.397 192.365 195.516 190.984 195.516Z" fill="#DBCFFC"/>
</g>
<path d="M237.992 261.884C234.767 261.884 232.152 259.27 232.152 256.045C232.152 252.82 234.767 250.206 237.992 250.206C241.217 250.206 243.831 252.82 243.831 256.045C243.831 259.27 241.217 261.884 237.992 261.884Z" fill="#DBCFFC"/>
<g clip-path="url(#clip1_18097_66211)">
<path d="M200.979 131.087C199.806 131.087 198.855 130.136 198.855 128.963C198.855 127.79 199.806 126.84 200.979 126.84C202.152 126.84 203.102 127.79 203.102 128.963C203.102 130.136 202.152 131.087 200.979 131.087Z" fill="#DBCFFC"/>
</g>
<g clip-path="url(#clip2_18097_66211)">
<path d="M243.462 172.199C241.41 172.199 239.746 170.535 239.746 168.483C239.746 166.431 241.41 164.767 243.462 164.767C245.514 164.767 247.178 166.431 247.178 168.483C247.178 170.535 245.514 172.199 243.462 172.199Z" fill="#DBCFFC"/>
</g>
<g clip-path="url(#clip3_18097_66211)">
<path d="M105.154 241.446C103.395 241.446 101.969 240.02 101.969 238.261C101.969 236.502 103.395 235.076 105.154 235.076C106.913 235.076 108.339 236.502 108.339 238.261C108.339 240.02 106.913 241.446 105.154 241.446Z" fill="#DBCFFC"/>
</g>
<path d="M260.653 111.077V107.096C260.653 106.885 260.569 106.682 260.42 106.533C260.271 106.384 260.068 106.3 259.857 106.3C259.646 106.3 259.443 106.384 259.294 106.533C259.145 106.682 259.061 106.885 259.061 107.096V111.077H255.079C254.868 111.077 254.666 111.161 254.516 111.311C254.367 111.46 254.283 111.662 254.283 111.874C254.283 112.085 254.367 112.287 254.516 112.437C254.666 112.586 254.868 112.67 255.079 112.67H259.061V116.651C259.061 116.862 259.145 117.065 259.294 117.214C259.443 117.364 259.646 117.447 259.857 117.447C260.068 117.447 260.271 117.364 260.42 117.214C260.569 117.065 260.653 116.862 260.653 116.651V112.67H264.635C264.846 112.67 265.048 112.586 265.198 112.437C265.347 112.287 265.431 112.085 265.431 111.874C265.431 111.662 265.347 111.46 265.198 111.311C265.048 111.161 264.846 111.077 264.635 111.077H260.653Z" fill="#DBCFFC"/>
<path d="M224.231 57.0759V54.9525C224.231 54.8399 224.187 54.7319 224.107 54.6522C224.027 54.5726 223.919 54.5278 223.807 54.5278C223.694 54.5278 223.586 54.5726 223.506 54.6522C223.427 54.7319 223.382 54.8399 223.382 54.9525V57.0759H221.259C221.146 57.0759 221.038 57.1206 220.958 57.2002C220.879 57.2799 220.834 57.3879 220.834 57.5005C220.834 57.6132 220.879 57.7212 220.958 57.8008C221.038 57.8805 221.146 57.9252 221.259 57.9252H223.382V60.0485C223.382 60.1612 223.427 60.2692 223.506 60.3488C223.586 60.4285 223.694 60.4732 223.807 60.4732C223.919 60.4732 224.027 60.4285 224.107 60.3488C224.187 60.2692 224.231 60.1612 224.231 60.0485V57.9252H226.355C226.467 57.9252 226.575 57.8805 226.655 57.8008C226.735 57.7212 226.779 57.6132 226.779 57.5005C226.779 57.3879 226.735 57.2799 226.655 57.2002C226.575 57.1206 226.467 57.0759 226.355 57.0759H224.231Z" fill="#DBCFFC"/>
<g clip-path="url(#clip4_18097_66211)">
<path d="M302.824 92.0278C301.065 92.0278 299.639 90.6018 299.639 88.8427C299.639 87.0837 301.065 85.6577 302.824 85.6577C304.583 85.6577 306.009 87.0837 306.009 88.8427C306.009 90.6018 304.583 92.0278 302.824 92.0278Z" fill="#DBCFFC"/>
</g>
<path d="M332.536 187.159L333.474 186.22C333.499 186.196 333.52 186.166 333.534 186.134C333.547 186.101 333.555 186.067 333.555 186.031C333.555 185.996 333.549 185.961 333.535 185.929C333.522 185.896 333.502 185.866 333.477 185.841C333.452 185.816 333.423 185.797 333.39 185.783C333.358 185.77 333.323 185.763 333.287 185.764C333.252 185.764 333.217 185.771 333.185 185.785C333.153 185.799 333.123 185.819 333.099 185.845L332.16 186.783L331.222 185.845C331.197 185.819 331.168 185.799 331.136 185.785C331.103 185.771 331.069 185.764 331.033 185.764C330.998 185.763 330.963 185.77 330.931 185.783C330.898 185.797 330.868 185.816 330.843 185.841C330.818 185.866 330.799 185.896 330.785 185.929C330.772 185.961 330.765 185.996 330.766 186.031C330.766 186.067 330.773 186.101 330.787 186.134C330.801 186.166 330.821 186.196 330.847 186.22L331.785 187.158L330.847 188.097C330.821 188.121 330.801 188.151 330.787 188.183C330.773 188.215 330.766 188.25 330.766 188.285C330.765 188.321 330.772 188.356 330.785 188.388C330.799 188.421 330.818 188.45 330.843 188.475C330.868 188.5 330.898 188.52 330.931 188.533C330.963 188.547 330.998 188.553 331.033 188.553C331.069 188.553 331.103 188.545 331.136 188.532C331.168 188.518 331.197 188.497 331.222 188.472L332.16 187.534L333.099 188.472C333.123 188.497 333.153 188.518 333.185 188.532C333.217 188.545 333.252 188.553 333.287 188.553C333.323 188.553 333.358 188.547 333.39 188.533C333.423 188.52 333.452 188.5 333.477 188.475C333.502 188.45 333.522 188.421 333.535 188.388C333.549 188.356 333.555 188.321 333.555 188.285C333.555 188.25 333.547 188.215 333.534 188.183C333.52 188.151 333.499 188.121 333.474 188.097L332.536 187.158V187.159Z" fill="#DBCFFC"/>
<path d="M275.586 42.4756L278.401 39.66C278.477 39.5866 278.537 39.4987 278.579 39.4015C278.621 39.3044 278.643 39.1999 278.644 39.0942C278.645 38.9885 278.624 38.8836 278.584 38.7858C278.544 38.6879 278.485 38.599 278.41 38.5242C278.336 38.4495 278.247 38.3903 278.149 38.3503C278.051 38.3103 277.946 38.2901 277.841 38.291C277.735 38.292 277.63 38.3139 277.533 38.3557C277.436 38.3974 277.348 38.4581 277.275 38.5341L274.459 41.3489L271.644 38.5341C271.571 38.4581 271.483 38.3974 271.386 38.3557C271.289 38.3139 271.184 38.292 271.079 38.291C270.973 38.2901 270.868 38.3103 270.77 38.3503C270.672 38.3903 270.583 38.4495 270.509 38.5242C270.434 38.599 270.375 38.6879 270.335 38.7858C270.295 38.8836 270.275 38.9885 270.275 39.0942C270.276 39.1999 270.298 39.3044 270.34 39.4015C270.382 39.4987 270.442 39.5866 270.518 39.66L273.333 42.4748L270.518 45.2903C270.442 45.3638 270.382 45.4517 270.34 45.5488C270.298 45.646 270.276 45.7504 270.275 45.8562C270.275 45.9619 270.295 46.0667 270.335 46.1646C270.375 46.2625 270.434 46.3514 270.509 46.4261C270.583 46.5009 270.672 46.56 270.77 46.6C270.868 46.6401 270.973 46.6602 271.079 46.6593C271.184 46.6584 271.289 46.6364 271.386 46.5947C271.483 46.553 271.571 46.4923 271.644 46.4163L274.459 43.6015L277.275 46.4163C277.348 46.4923 277.436 46.553 277.533 46.5947C277.63 46.6364 277.735 46.6584 277.841 46.6593C277.946 46.6602 278.051 46.6401 278.149 46.6C278.247 46.56 278.336 46.5009 278.41 46.4261C278.485 46.3514 278.544 46.2625 278.584 46.1646C278.624 46.0667 278.645 45.9619 278.644 45.8562C278.643 45.7504 278.621 45.646 278.579 45.5488C278.537 45.4517 278.477 45.3638 278.401 45.2903L275.586 42.4748V42.4756Z" fill="#DBCFFC"/>
<path d="M289.504 318.121V314.936C289.504 314.767 289.437 314.605 289.318 314.485C289.198 314.366 289.036 314.299 288.867 314.299C288.698 314.299 288.536 314.366 288.417 314.485C288.297 314.605 288.23 314.767 288.23 314.936V318.121H285.045C284.876 318.121 284.714 318.188 284.595 318.307C284.475 318.427 284.408 318.589 284.408 318.758C284.408 318.927 284.475 319.089 284.595 319.208C284.714 319.328 284.876 319.395 285.045 319.395H288.23V322.58C288.23 322.749 288.297 322.911 288.417 323.03C288.536 323.15 288.698 323.217 288.867 323.217C289.036 323.217 289.198 323.15 289.318 323.03C289.437 322.911 289.504 322.749 289.504 322.58V319.395H292.689C292.858 319.395 293.02 319.328 293.14 319.208C293.259 319.089 293.326 318.927 293.326 318.758C293.326 318.589 293.259 318.427 293.14 318.307C293.02 318.188 292.858 318.121 292.689 318.121H289.504Z" fill="#DBCFFC"/>
<path d="M7.11389 266.052V263.398C7.11389 263.257 7.05796 263.122 6.95841 263.022C6.85886 262.923 6.72384 262.867 6.58305 262.867C6.44227 262.867 6.30725 262.923 6.20769 263.022C6.10814 263.122 6.05222 263.257 6.05222 263.398V266.052H3.39803C3.25724 266.052 3.12222 266.108 3.02267 266.207C2.92311 266.307 2.86719 266.442 2.86719 266.583C2.86719 266.723 2.92311 266.858 3.02267 266.958C3.12222 267.057 3.25724 267.113 3.39803 267.113H6.05222V269.768C6.05222 269.908 6.10814 270.043 6.20769 270.143C6.30725 270.243 6.44227 270.298 6.58305 270.298C6.72384 270.298 6.85886 270.243 6.95841 270.143C7.05796 270.043 7.11389 269.908 7.11389 269.768V267.113H9.76808C9.90887 267.113 10.0439 267.057 10.1434 266.958C10.243 266.858 10.2989 266.723 10.2989 266.583C10.2989 266.442 10.243 266.307 10.1434 266.207C10.0439 266.108 9.90887 266.052 9.76808 266.052H7.11389Z" fill="#DBCFFC"/>
<path d="M291.656 214.054L293.158 212.552C293.198 212.513 293.231 212.466 293.253 212.414C293.275 212.362 293.287 212.307 293.287 212.25C293.288 212.194 293.277 212.138 293.256 212.086C293.234 212.033 293.203 211.986 293.163 211.946C293.123 211.906 293.076 211.875 293.023 211.853C292.971 211.832 292.915 211.821 292.859 211.822C292.803 211.822 292.747 211.834 292.695 211.856C292.643 211.879 292.596 211.911 292.557 211.951L291.056 213.453L289.554 211.951C289.515 211.911 289.468 211.879 289.417 211.856C289.365 211.834 289.309 211.822 289.253 211.822C289.196 211.821 289.14 211.832 289.088 211.853C289.036 211.875 288.988 211.906 288.949 211.946C288.909 211.986 288.877 212.033 288.856 212.086C288.834 212.138 288.824 212.194 288.824 212.25C288.825 212.307 288.836 212.362 288.859 212.414C288.881 212.466 288.913 212.513 288.954 212.552L290.455 214.053L288.954 215.555C288.913 215.594 288.881 215.641 288.859 215.693C288.836 215.744 288.825 215.8 288.824 215.857C288.824 215.913 288.834 215.969 288.856 216.021C288.877 216.073 288.909 216.121 288.949 216.161C288.988 216.2 289.036 216.232 289.088 216.253C289.14 216.275 289.196 216.285 289.253 216.285C289.309 216.284 289.365 216.273 289.417 216.25C289.468 216.228 289.515 216.196 289.554 216.155L291.056 214.654L292.557 216.155C292.596 216.196 292.643 216.228 292.695 216.25C292.747 216.273 292.803 216.284 292.859 216.285C292.915 216.285 292.971 216.275 293.023 216.253C293.076 216.232 293.123 216.2 293.163 216.161C293.203 216.121 293.234 216.073 293.256 216.021C293.277 215.969 293.288 215.913 293.287 215.857C293.287 215.8 293.275 215.744 293.253 215.693C293.231 215.641 293.198 215.594 293.158 215.555L291.656 214.053V214.054Z" fill="#DBCFFC"/>
<defs>
<clipPath id="clip0_18097_66211">
<rect width="6" height="6" fill="white" transform="translate(187.984 190)"/>
</clipPath>
<clipPath id="clip1_18097_66211">
<rect width="5.09605" height="5.09605" fill="white" transform="translate(198.432 126.401)"/>
</clipPath>
<clipPath id="clip2_18097_66211">
<rect width="8.91808" height="8.91808" fill="white" transform="translate(239.002 164)"/>
</clipPath>
<clipPath id="clip3_18097_66211">
<rect width="7.64407" height="7.64407" fill="white" transform="translate(101.332 234.418)"/>
</clipPath>
<clipPath id="clip4_18097_66211">
<rect width="7.64407" height="7.64407" fill="white" transform="translate(299.002 85)"/>
</clipPath>
</defs>
</svg>
