<svg width="505" height="336" viewBox="0 0 505 336" fill="none" xmlns="http://www.w3.org/2000/svg">
<path d="M256.116 169.065L253.704 173.653L258.812 172.777L262.43 176.49L263.176 171.36L267.824 169.065L263.176 166.771L262.43 161.642L258.812 165.354L253.704 164.477L256.116 169.065Z" fill="#B79FF9"/>
<path d="M493.46 146.77L491.566 150.375L495.58 149.686L498.422 152.604L499.008 148.573L502.66 146.77L499.008 144.968L498.422 140.937L495.58 143.854L491.566 143.165L493.46 146.77Z" fill="#B79FF9"/>
<g clip-path="url(#clip0_18097_123206)">
<path d="M94.6758 39.3701C94.6758 40.7509 95.795 41.8701 97.1758 41.8701C98.5565 41.8701 99.6758 40.7509 99.6758 39.3701C99.6758 37.9894 98.5565 36.8701 97.1758 36.8701C95.795 36.8701 94.6758 37.9894 94.6758 39.3701Z" fill="#B79FF9"/>
</g>
<g clip-path="url(#clip1_18097_123206)">
<path d="M141.921 111.735C141.921 114.081 143.822 115.982 146.167 115.982C148.513 115.982 150.414 114.081 150.414 111.735C150.414 109.39 148.513 107.489 146.167 107.489C143.822 107.489 141.921 109.39 141.921 111.735Z" fill="#B79FF9"/>
</g>
<g clip-path="url(#clip2_18097_123206)">
<path d="M308.676 144.389C308.676 145.769 309.795 146.889 311.176 146.889C312.557 146.889 313.676 145.769 313.676 144.389C313.676 143.008 312.557 141.889 311.176 141.889C309.795 141.889 308.676 143.008 308.676 144.389Z" fill="#B79FF9"/>
</g>
<path d="M242.308 97.3815C242.308 100.606 244.922 103.221 248.147 103.221C251.372 103.221 253.986 100.606 253.986 97.3815C253.986 94.1565 251.372 91.5423 248.147 91.5423C244.922 91.5423 242.308 94.1565 242.308 97.3815Z" fill="#B79FF9"/>
<g clip-path="url(#clip3_18097_123206)">
<path d="M373.107 134.392C373.107 135.565 374.057 136.516 375.23 136.516C376.403 136.516 377.354 135.565 377.354 134.392C377.354 133.22 376.403 132.269 375.23 132.269C374.057 132.269 373.107 133.22 373.107 134.392Z" fill="#B79FF9"/>
</g>
<g clip-path="url(#clip4_18097_123206)">
<path d="M331.992 91.9111C331.992 93.9634 333.656 95.627 335.708 95.627C337.76 95.627 339.424 93.9634 339.424 91.9111C339.424 89.8588 337.76 88.1952 335.708 88.1952C333.656 88.1952 331.992 89.8588 331.992 91.9111Z" fill="#B79FF9"/>
</g>
<g clip-path="url(#clip5_18097_123206)">
<path d="M262.745 230.218C262.745 231.977 264.171 233.403 265.93 233.403C267.689 233.403 269.115 231.977 269.115 230.218C269.115 228.459 267.689 227.033 265.93 227.033C264.171 227.033 262.745 228.459 262.745 230.218Z" fill="#B79FF9"/>
</g>
<path d="M393.115 74.7188L397.096 74.7188C397.308 74.7188 397.51 74.8027 397.659 74.952C397.809 75.1014 397.893 75.3039 397.893 75.5151C397.893 75.7262 397.809 75.9288 397.659 76.0781C397.51 76.2274 397.308 76.3113 397.096 76.3113L393.115 76.3113L393.115 80.2926C393.115 80.5038 393.031 80.7063 392.882 80.8556C392.732 81.005 392.53 81.0889 392.319 81.0889C392.108 81.0889 391.905 81.005 391.756 80.8556C391.606 80.7063 391.523 80.5038 391.523 80.2926L391.523 76.3113L387.541 76.3113C387.33 76.3113 387.128 76.2274 386.978 76.0781C386.829 75.9288 386.745 75.7262 386.745 75.5151C386.745 75.3039 386.829 75.1014 386.978 74.952C387.128 74.8027 387.33 74.7188 387.541 74.7188L391.523 74.7188L391.523 70.7375C391.523 70.5263 391.606 70.3238 391.756 70.1745C391.905 70.0252 392.108 69.9413 392.319 69.9413C392.53 69.9413 392.732 70.0252 392.882 70.1745C393.031 70.3238 393.115 70.5263 393.115 70.7375L393.115 74.7188Z" fill="#B79FF9"/>
<path d="M447.116 111.14L449.239 111.14C449.352 111.14 449.46 111.185 449.54 111.265C449.619 111.344 449.664 111.452 449.664 111.565C449.664 111.678 449.619 111.786 449.54 111.865C449.46 111.945 449.352 111.99 449.239 111.99L447.116 111.99L447.116 114.113C447.116 114.226 447.071 114.334 446.992 114.413C446.912 114.493 446.804 114.538 446.691 114.538C446.579 114.538 446.471 114.493 446.391 114.413C446.311 114.334 446.267 114.226 446.267 114.113L446.267 111.99L444.143 111.99C444.031 111.99 443.923 111.945 443.843 111.865C443.763 111.786 443.719 111.678 443.719 111.565C443.719 111.452 443.763 111.344 443.843 111.265C443.923 111.185 444.031 111.14 444.143 111.14L446.267 111.14L446.267 109.017C446.267 108.904 446.311 108.796 446.391 108.717C446.471 108.637 446.579 108.592 446.691 108.592C446.804 108.592 446.912 108.637 446.992 108.717C447.071 108.796 447.116 108.904 447.116 109.017L447.116 111.14Z" fill="#B79FF9"/>
<path d="M412.163 32.5479C412.163 34.307 413.589 35.7329 415.348 35.7329C417.107 35.7329 418.533 34.307 418.533 32.5479C418.533 30.7888 417.107 29.3629 415.348 29.3629C413.589 29.3629 412.163 30.7888 412.163 32.5479Z" fill="#B79FF9"/>
<path d="M5.35041 89.6793L7.47377 89.6793C7.5864 89.6793 7.69441 89.724 7.77405 89.8037C7.8537 89.8833 7.89844 89.9913 7.89844 90.104C7.89844 90.2166 7.8537 90.3246 7.77405 90.4043C7.69441 90.4839 7.5864 90.5286 7.47377 90.5286L5.35041 90.5286L5.35041 92.652C5.35041 92.7646 5.30567 92.8726 5.22603 92.9523C5.14639 93.0319 5.03837 93.0767 4.92574 93.0767C4.81311 93.0767 4.7051 93.0319 4.62546 92.9523C4.54582 92.8726 4.50107 92.7646 4.50107 92.652L4.50107 90.5286L2.37772 90.5286C2.26509 90.5286 2.15708 90.4839 2.07743 90.4043C1.99779 90.3246 1.95305 90.2166 1.95305 90.104C1.95305 89.9913 1.99779 89.8833 2.07743 89.8037C2.15708 89.724 2.26509 89.6793 2.37772 89.6793L4.50107 89.6793L4.50107 87.5559C4.50107 87.4433 4.54582 87.3353 4.62546 87.2557C4.7051 87.176 4.81311 87.1313 4.92574 87.1313C5.03837 87.1313 5.14639 87.176 5.22603 87.2557C5.30567 87.3353 5.35041 87.4433 5.35041 87.5559L5.35041 89.6793Z" fill="#B79FF9"/>
<path d="M317.033 2.83629L317.971 1.89803C317.996 1.87268 318.025 1.85246 318.058 1.83855C318.09 1.82464 318.125 1.81732 318.16 1.81701C318.195 1.81671 318.23 1.82342 318.263 1.83677C318.295 1.85011 318.325 1.86982 318.35 1.89474C318.375 1.91966 318.395 1.9493 318.408 1.98192C318.421 2.01454 318.428 2.04949 318.428 2.08473C318.427 2.11997 318.42 2.1548 318.406 2.18718C318.392 2.21956 318.372 2.24885 318.347 2.27334L317.408 3.21186L318.347 4.15011C318.372 4.1746 318.392 4.20389 318.406 4.23627C318.42 4.26865 318.427 4.30348 318.428 4.33872C318.428 4.37396 318.421 4.40891 318.408 4.44153C318.395 4.47415 318.375 4.50378 318.35 4.52871C318.325 4.55363 318.295 4.57333 318.263 4.58668C318.23 4.60003 318.195 4.60674 318.16 4.60644C318.125 4.60613 318.09 4.59881 318.058 4.5849C318.025 4.57099 317.996 4.55077 317.971 4.52542L317.033 3.58716L316.095 4.52542C316.07 4.55077 316.041 4.57099 316.008 4.5849C315.976 4.59881 315.941 4.60613 315.906 4.60644C315.871 4.60674 315.836 4.60003 315.803 4.58668C315.771 4.57334 315.741 4.55363 315.716 4.52871C315.691 4.50379 315.671 4.47415 315.658 4.44153C315.645 4.40891 315.638 4.37396 315.638 4.33872C315.639 4.30348 315.646 4.26865 315.66 4.23627C315.674 4.20389 315.694 4.1746 315.719 4.15011L316.658 3.21186L315.719 2.27334C315.694 2.24885 315.674 2.21956 315.66 2.18718C315.646 2.1548 315.639 2.11997 315.638 2.08473C315.638 2.04949 315.645 2.01454 315.658 1.98192C315.671 1.9493 315.691 1.91966 315.716 1.89474C315.741 1.86982 315.771 1.85011 315.803 1.83677C315.836 1.82342 315.871 1.81671 315.906 1.81701C315.941 1.81732 315.976 1.82464 316.008 1.83855C316.041 1.85246 316.07 1.87268 316.095 1.89803L317.033 2.83629L317.033 2.83629Z" fill="#B79FF9"/>
<path d="M461.716 59.7872L464.531 56.9724C464.605 56.8964 464.693 56.8357 464.79 56.794C464.887 56.7522 464.991 56.7303 465.097 56.7294C465.203 56.7284 465.308 56.7486 465.406 56.7886C465.504 56.8287 465.592 56.8878 465.667 56.9626C465.742 57.0373 465.801 57.1262 465.841 57.2241C465.881 57.3219 465.901 57.4268 465.9 57.5325C465.899 57.6382 465.877 57.7427 465.836 57.8399C465.794 57.937 465.733 58.0249 465.657 58.0983L462.843 60.9139L465.657 63.7287C465.733 63.8021 465.794 63.89 465.836 63.9871C465.877 64.0843 465.899 64.1888 465.9 64.2945C465.901 64.4002 465.881 64.5051 465.841 64.6029C465.801 64.7008 465.742 64.7897 465.667 64.8644C465.592 64.9392 465.504 64.9983 465.406 65.0384C465.308 65.0784 465.203 65.0985 465.097 65.0976C464.991 65.0967 464.887 65.0747 464.79 65.033C464.693 64.9913 464.605 64.9306 464.531 64.8546L461.717 62.0398L458.901 64.8546C458.828 64.9306 458.74 64.9913 458.643 65.033C458.545 65.0747 458.441 65.0967 458.335 65.0976C458.23 65.0985 458.125 65.0784 458.027 65.0384C457.929 64.9983 457.84 64.9392 457.765 64.8644C457.691 64.7897 457.631 64.7008 457.591 64.6029C457.551 64.5051 457.531 64.4002 457.532 64.2945C457.533 64.1888 457.555 64.0843 457.597 63.9871C457.638 63.89 457.699 63.8021 457.775 63.7287L460.59 60.9139L457.775 58.0983C457.699 58.0249 457.638 57.937 457.597 57.8399C457.555 57.7427 457.533 57.6382 457.532 57.5325C457.531 57.4268 457.551 57.3219 457.591 57.2241C457.631 57.1262 457.691 57.0373 457.765 56.9626C457.84 56.8878 457.929 56.8287 458.027 56.7886C458.125 56.7486 458.23 56.7284 458.335 56.7294C458.441 56.7303 458.545 56.7522 458.643 56.794C458.74 56.8357 458.828 56.8964 458.901 56.9724L461.717 59.7872L461.716 59.7872Z" fill="#B79FF9"/>
<path d="M186.071 45.8683L189.256 45.8683C189.425 45.8683 189.587 45.9354 189.706 46.0549C189.825 46.1743 189.893 46.3364 189.893 46.5053C189.893 46.6743 189.825 46.8363 189.706 46.9557C189.587 47.0752 189.425 47.1423 189.256 47.1423L186.071 47.1423L186.071 50.3274C186.071 50.4963 186.003 50.6583 185.884 50.7778C185.765 50.8972 185.602 50.9644 185.434 50.9644C185.265 50.9644 185.103 50.8972 184.983 50.7778C184.864 50.6583 184.797 50.4963 184.797 50.3274L184.797 47.1423L181.612 47.1423C181.443 47.1423 181.281 47.0752 181.161 46.9557C181.042 46.8363 180.974 46.6743 180.974 46.5053C180.974 46.3364 181.042 46.1743 181.161 46.0549C181.281 45.9354 181.443 45.8683 181.612 45.8683L184.797 45.8683L184.797 42.6833C184.797 42.5143 184.864 42.3523 184.983 42.2329C185.103 42.1134 185.265 42.0463 185.434 42.0463C185.602 42.0463 185.765 42.1134 185.884 42.2329C186.003 42.3523 186.071 42.5143 186.071 42.6833L186.071 45.8683Z" fill="#B79FF9"/>
<path d="M238.139 328.259L240.793 328.259C240.934 328.259 241.069 328.315 241.169 328.414C241.268 328.514 241.324 328.649 241.324 328.79C241.324 328.93 241.268 329.065 241.169 329.165C241.069 329.264 240.934 329.32 240.793 329.32L238.139 329.32L238.139 331.975C238.139 332.115 238.083 332.25 237.984 332.35C237.884 332.449 237.749 332.505 237.608 332.505C237.468 332.505 237.333 332.449 237.233 332.35C237.133 332.25 237.078 332.115 237.078 331.975L237.078 329.32L234.423 329.32C234.283 329.32 234.148 329.264 234.048 329.165C233.948 329.065 233.892 328.93 233.892 328.79C233.892 328.649 233.948 328.514 234.048 328.414C234.148 328.315 234.283 328.259 234.423 328.259L237.078 328.259L237.078 325.604C237.078 325.464 237.133 325.329 237.233 325.229C237.333 325.13 237.468 325.074 237.608 325.074C237.749 325.074 237.884 325.13 237.984 325.229C238.083 325.329 238.139 325.464 238.139 325.604L238.139 328.259Z" fill="#B79FF9"/>
<path d="M290.137 43.7161L291.639 42.2149C291.678 42.1743 291.725 42.142 291.777 42.1197C291.829 42.0975 291.884 42.0857 291.941 42.0852C291.997 42.0848 292.053 42.0955 292.105 42.1169C292.157 42.1382 292.205 42.1697 292.245 42.2096C292.285 42.2495 292.316 42.2969 292.338 42.3491C292.359 42.4013 292.37 42.4572 292.369 42.5136C292.369 42.57 292.357 42.6257 292.335 42.6775C292.312 42.7293 292.28 42.7762 292.239 42.8154L290.738 44.317L292.239 45.8182C292.28 45.8574 292.312 45.9042 292.335 45.9561C292.357 46.0079 292.369 46.0636 292.369 46.12C292.37 46.1764 292.359 46.2323 292.338 46.2845C292.316 46.3367 292.285 46.3841 292.245 46.424C292.205 46.4638 292.157 46.4954 292.105 46.5167C292.053 46.5381 291.997 46.5488 291.941 46.5483C291.884 46.5478 291.829 46.5361 291.777 46.5139C291.725 46.4916 291.678 46.4593 291.639 46.4187L290.138 44.9175L288.636 46.4187C288.597 46.4593 288.55 46.4916 288.498 46.5139C288.447 46.5361 288.391 46.5478 288.334 46.5483C288.278 46.5488 288.222 46.5381 288.17 46.5167C288.118 46.4954 288.07 46.4638 288.03 46.424C287.991 46.3841 287.959 46.3367 287.938 46.2845C287.916 46.2323 287.906 46.1764 287.906 46.12C287.907 46.0636 287.918 46.0079 287.941 45.9561C287.963 45.9042 287.995 45.8574 288.036 45.8182L289.537 44.317L288.036 42.8154C287.995 42.7762 287.963 42.7293 287.941 42.6775C287.918 42.6257 287.907 42.57 287.906 42.5136C287.906 42.4572 287.916 42.4013 287.938 42.3491C287.959 42.2969 287.991 42.2495 288.03 42.2096C288.07 42.1697 288.118 42.1382 288.17 42.1169C288.222 42.0955 288.278 42.0848 288.334 42.0852C288.391 42.0857 288.447 42.0975 288.498 42.1197C288.55 42.142 288.597 42.1743 288.636 42.2149L290.138 43.7161L290.137 43.7161Z" fill="#B79FF9"/>
<defs>
<clipPath id="clip0_18097_123206">
<rect width="6" height="6" fill="white" transform="matrix(-4.37114e-08 -1 -1 4.37114e-08 100.191 42.3701)"/>
</clipPath>
<clipPath id="clip1_18097_123206">
<rect width="10.1921" height="10.1921" fill="white" transform="matrix(-4.37114e-08 -1 -1 4.37114e-08 151.291 116.831)"/>
</clipPath>
<clipPath id="clip2_18097_123206">
<rect width="6" height="6" fill="white" transform="matrix(-4.37114e-08 -1 -1 4.37114e-08 314.191 147.389)"/>
</clipPath>
<clipPath id="clip3_18097_123206">
<rect width="5.09605" height="5.09605" fill="white" transform="matrix(-4.37114e-08 -1 -1 4.37114e-08 377.791 136.94)"/>
</clipPath>
<clipPath id="clip4_18097_123206">
<rect width="8.91808" height="8.91808" fill="white" transform="matrix(-4.37114e-08 -1 -1 4.37114e-08 340.191 96.3701)"/>
</clipPath>
<clipPath id="clip5_18097_123206">
<rect width="7.64407" height="7.64407" fill="white" transform="matrix(-4.37114e-08 -1 -1 4.37114e-08 269.773 234.04)"/>
</clipPath>
</defs>
</svg>
