<svg width="269" height="460" viewBox="0 0 269 460" fill="none" xmlns="http://www.w3.org/2000/svg">
<path d="M99.3071 256.115L94.7195 253.703L95.5957 258.812L91.8828 262.43L97.0122 263.175L99.3071 267.824L101.601 263.175L106.731 262.43L103.019 258.812L103.895 253.703L99.3071 256.115Z" fill="white"/>
<g clip-path="url(#clip0_18097_66143)">
<path d="M229.002 94.6758C227.621 94.6758 226.502 95.795 226.502 97.1758C226.502 98.5565 227.621 99.6758 229.002 99.6758C230.383 99.6758 231.502 98.5565 231.502 97.1758C231.502 95.795 230.383 94.6758 229.002 94.6758Z" fill="white"/>
</g>
<g clip-path="url(#clip1_18097_66143)">
<path d="M156.637 141.921C154.292 141.921 152.391 143.822 152.391 146.167C152.391 148.513 154.292 150.414 156.637 150.414C158.983 150.414 160.884 148.513 160.884 146.167C160.884 143.822 158.983 141.921 156.637 141.921Z" fill="white"/>
</g>
<g clip-path="url(#clip2_18097_66143)">
<path d="M123.984 308.676C122.604 308.676 121.484 309.795 121.484 311.176C121.484 312.557 122.604 313.676 123.984 313.676C125.365 313.676 126.484 312.557 126.484 311.176C126.484 309.795 125.365 308.676 123.984 308.676Z" fill="white"/>
</g>
<path d="M170.992 242.308C167.767 242.308 165.152 244.922 165.152 248.147C165.152 251.372 167.767 253.986 170.992 253.986C174.217 253.986 176.831 251.372 176.831 248.147C176.831 244.922 174.217 242.308 170.992 242.308Z" fill="white"/>
<g clip-path="url(#clip3_18097_66143)">
<path d="M133.979 373.106C132.806 373.106 131.855 374.056 131.855 375.229C131.855 376.402 132.806 377.353 133.979 377.353C135.152 377.353 136.102 376.402 136.102 375.229C136.102 374.056 135.152 373.106 133.979 373.106Z" fill="white"/>
</g>
<g clip-path="url(#clip4_18097_66143)">
<path d="M176.462 331.993C174.41 331.993 172.746 333.657 172.746 335.709C172.746 337.761 174.41 339.425 176.462 339.425C178.514 339.425 180.178 337.761 180.178 335.709C180.178 333.657 178.514 331.993 176.462 331.993Z" fill="white"/>
</g>
<g clip-path="url(#clip5_18097_66143)">
<path d="M38.1538 262.746C36.3947 262.746 34.9688 264.172 34.9688 265.931C34.9688 267.69 36.3947 269.116 38.1538 269.116C39.9129 269.116 41.3388 267.69 41.3388 265.931C41.3388 264.172 39.9129 262.746 38.1538 262.746Z" fill="white"/>
</g>
<path d="M193.653 393.115V397.096C193.653 397.307 193.569 397.51 193.42 397.659C193.271 397.808 193.068 397.892 192.857 397.892C192.646 397.892 192.443 397.808 192.294 397.659C192.145 397.51 192.061 397.307 192.061 397.096V393.115H188.079C187.868 393.115 187.666 393.031 187.516 392.881C187.367 392.732 187.283 392.529 187.283 392.318C187.283 392.107 187.367 391.905 187.516 391.755C187.666 391.606 187.868 391.522 188.079 391.522H192.061V387.541C192.061 387.33 192.145 387.127 192.294 386.978C192.443 386.828 192.646 386.744 192.857 386.744C193.068 386.744 193.271 386.828 193.42 386.978C193.569 387.127 193.653 387.33 193.653 387.541V391.522H197.635C197.846 391.522 198.048 391.606 198.198 391.755C198.347 391.905 198.431 392.107 198.431 392.318C198.431 392.529 198.347 392.732 198.198 392.881C198.048 393.031 197.846 393.115 197.635 393.115H193.653Z" fill="white"/>
<path d="M157.231 447.116V449.239C157.231 449.352 157.187 449.46 157.107 449.54C157.027 449.619 156.919 449.664 156.807 449.664C156.694 449.664 156.586 449.619 156.506 449.54C156.427 449.46 156.382 449.352 156.382 449.239V447.116H154.259C154.146 447.116 154.038 447.071 153.958 446.992C153.879 446.912 153.834 446.804 153.834 446.691C153.834 446.579 153.879 446.471 153.958 446.391C154.038 446.311 154.146 446.267 154.259 446.267H156.382V444.143C156.382 444.031 156.427 443.923 156.506 443.843C156.586 443.763 156.694 443.719 156.807 443.719C156.919 443.719 157.027 443.763 157.107 443.843C157.187 443.923 157.231 444.031 157.231 444.143V446.267H159.355C159.467 446.267 159.575 446.311 159.655 446.391C159.735 446.471 159.779 446.579 159.779 446.691C159.779 446.804 159.735 446.912 159.655 446.992C159.575 447.071 159.467 447.116 159.355 447.116H157.231Z" fill="white"/>
<g clip-path="url(#clip6_18097_66143)">
<path d="M235.824 412.164C234.065 412.164 232.639 413.59 232.639 415.349C232.639 417.108 234.065 418.534 235.824 418.534C237.583 418.534 239.009 417.108 239.009 415.349C239.009 413.59 237.583 412.164 235.824 412.164Z" fill="white"/>
</g>
<path d="M178.692 5.35041V7.47377C178.692 7.5864 178.648 7.69441 178.568 7.77405C178.488 7.8537 178.38 7.89844 178.268 7.89844C178.155 7.89844 178.047 7.8537 177.967 7.77405C177.888 7.69441 177.843 7.5864 177.843 7.47377V5.35041H175.72C175.607 5.35041 175.499 5.30567 175.419 5.22603C175.34 5.14639 175.295 5.03837 175.295 4.92574C175.295 4.81311 175.34 4.7051 175.419 4.62546C175.499 4.54582 175.607 4.50107 175.72 4.50107H177.843V2.37772C177.843 2.26509 177.888 2.15708 177.967 2.07743C178.047 1.99779 178.155 1.95305 178.268 1.95305C178.38 1.95305 178.488 1.99779 178.568 2.07743C178.648 2.15708 178.692 2.26509 178.692 2.37772V4.50107H180.816C180.928 4.50107 181.036 4.54582 181.116 4.62546C181.196 4.7051 181.24 4.81311 181.24 4.92574C181.24 5.03837 181.196 5.14639 181.116 5.22603C181.036 5.30567 180.928 5.35041 180.816 5.35041H178.692Z" fill="white"/>
<path d="M265.536 317.033L266.474 317.972C266.499 317.996 266.52 318.026 266.534 318.058C266.547 318.09 266.555 318.125 266.555 318.16C266.555 318.196 266.549 318.231 266.535 318.263C266.522 318.296 266.502 318.326 266.477 318.35C266.452 318.375 266.423 318.395 266.39 318.408C266.358 318.422 266.323 318.429 266.287 318.428C266.252 318.428 266.217 318.421 266.185 318.407C266.153 318.393 266.123 318.373 266.099 318.347L265.16 317.409L264.222 318.347C264.197 318.373 264.168 318.393 264.136 318.407C264.103 318.421 264.069 318.428 264.033 318.428C263.998 318.429 263.963 318.422 263.931 318.408C263.898 318.395 263.868 318.375 263.843 318.35C263.818 318.326 263.799 318.296 263.785 318.263C263.772 318.231 263.765 318.196 263.766 318.16C263.766 318.125 263.773 318.09 263.787 318.058C263.801 318.026 263.821 317.996 263.847 317.972L264.785 317.034L263.847 316.095C263.821 316.071 263.801 316.041 263.787 316.009C263.773 315.977 263.766 315.942 263.766 315.907C263.765 315.871 263.772 315.836 263.785 315.804C263.799 315.771 263.818 315.741 263.843 315.717C263.868 315.692 263.898 315.672 263.931 315.659C263.963 315.645 263.998 315.638 264.033 315.639C264.069 315.639 264.103 315.646 264.136 315.66C264.168 315.674 264.197 315.694 264.222 315.72L265.16 316.658L266.099 315.72C266.123 315.694 266.153 315.674 266.185 315.66C266.217 315.646 266.252 315.639 266.287 315.639C266.323 315.638 266.358 315.645 266.39 315.659C266.423 315.672 266.452 315.692 266.477 315.717C266.502 315.741 266.522 315.771 266.535 315.804C266.549 315.836 266.555 315.871 266.555 315.907C266.555 315.942 266.547 315.977 266.534 316.009C266.52 316.041 266.499 316.071 266.474 316.095L265.536 317.034V317.033Z" fill="white"/>
<path d="M208.586 461.716L211.401 464.532C211.477 464.605 211.537 464.693 211.579 464.79C211.621 464.887 211.643 464.992 211.644 465.098C211.645 465.203 211.624 465.308 211.584 465.406C211.544 465.504 211.485 465.593 211.41 465.668C211.336 465.742 211.247 465.802 211.149 465.842C211.051 465.882 210.946 465.902 210.841 465.901C210.735 465.9 210.63 465.878 210.533 465.836C210.436 465.795 210.348 465.734 210.275 465.658L207.459 462.843L204.644 465.658C204.571 465.734 204.483 465.795 204.386 465.836C204.289 465.878 204.184 465.9 204.079 465.901C203.973 465.902 203.868 465.882 203.77 465.842C203.672 465.802 203.583 465.742 203.509 465.668C203.434 465.593 203.375 465.504 203.335 465.406C203.295 465.308 203.275 465.203 203.275 465.098C203.276 464.992 203.298 464.887 203.34 464.79C203.382 464.693 203.442 464.605 203.518 464.532L206.333 461.717L203.518 458.902C203.442 458.828 203.382 458.74 203.34 458.643C203.298 458.546 203.276 458.441 203.275 458.336C203.275 458.23 203.295 458.125 203.335 458.027C203.375 457.929 203.434 457.841 203.509 457.766C203.583 457.691 203.672 457.632 203.77 457.592C203.868 457.552 203.973 457.532 204.079 457.533C204.184 457.534 204.289 457.555 204.386 457.597C204.483 457.639 204.571 457.7 204.644 457.776L207.459 460.59L210.275 457.776C210.348 457.7 210.436 457.639 210.533 457.597C210.63 457.555 210.735 457.534 210.841 457.533C210.946 457.532 211.051 457.552 211.149 457.592C211.247 457.632 211.336 457.691 211.41 457.766C211.485 457.841 211.544 457.929 211.584 458.027C211.624 458.125 211.645 458.23 211.644 458.336C211.643 458.441 211.621 458.546 211.579 458.643C211.537 458.74 211.477 458.828 211.401 458.902L208.586 461.717V461.716Z" fill="white"/>
<path d="M222.504 186.071V189.256C222.504 189.425 222.437 189.587 222.318 189.706C222.198 189.826 222.036 189.893 221.867 189.893C221.698 189.893 221.536 189.826 221.417 189.706C221.297 189.587 221.23 189.425 221.23 189.256V186.071H218.045C217.876 186.071 217.714 186.004 217.595 185.884C217.475 185.765 217.408 185.603 217.408 185.434C217.408 185.265 217.475 185.103 217.595 184.984C217.714 184.864 217.876 184.797 218.045 184.797H221.23V181.612C221.23 181.443 221.297 181.281 221.417 181.162C221.536 181.042 221.698 180.975 221.867 180.975C222.036 180.975 222.198 181.042 222.318 181.162C222.437 181.281 222.504 181.443 222.504 181.612V184.797H225.689C225.858 184.797 226.02 184.864 226.14 184.984C226.259 185.103 226.326 185.265 226.326 185.434C226.326 185.603 226.259 185.765 226.14 185.884C226.02 186.004 225.858 186.071 225.689 186.071H222.504Z" fill="white"/>
<path d="M224.656 290.138L226.158 291.64C226.198 291.679 226.231 291.726 226.253 291.778C226.275 291.83 226.287 291.885 226.287 291.942C226.288 291.998 226.277 292.054 226.256 292.106C226.234 292.158 226.203 292.206 226.163 292.246C226.123 292.286 226.076 292.317 226.023 292.338C225.971 292.36 225.915 292.371 225.859 292.37C225.803 292.37 225.747 292.358 225.695 292.336C225.643 292.313 225.596 292.281 225.557 292.24L224.056 290.739L222.554 292.24C222.515 292.281 222.468 292.313 222.417 292.336C222.365 292.358 222.309 292.37 222.253 292.37C222.196 292.371 222.14 292.36 222.088 292.338C222.036 292.317 221.988 292.286 221.949 292.246C221.909 292.206 221.877 292.158 221.856 292.106C221.834 292.054 221.824 291.998 221.824 291.942C221.825 291.885 221.836 291.83 221.859 291.778C221.881 291.726 221.913 291.679 221.954 291.64L223.455 290.139L221.954 288.637C221.913 288.598 221.881 288.551 221.859 288.499C221.836 288.447 221.825 288.392 221.824 288.335C221.824 288.279 221.834 288.223 221.856 288.171C221.877 288.119 221.909 288.071 221.949 288.031C221.988 287.992 222.036 287.96 222.088 287.939C222.14 287.917 222.196 287.907 222.253 287.907C222.309 287.908 222.365 287.919 222.417 287.941C222.468 287.964 222.515 287.996 222.554 288.037L224.056 289.538L225.557 288.037C225.596 287.996 225.643 287.964 225.695 287.941C225.747 287.919 225.803 287.908 225.859 287.907C225.915 287.907 225.971 287.917 226.023 287.939C226.076 287.96 226.123 287.992 226.163 288.031C226.203 288.071 226.234 288.119 226.256 288.171C226.277 288.223 226.288 288.279 226.287 288.335C226.287 288.392 226.275 288.447 226.253 288.499C226.231 288.551 226.198 288.598 226.158 288.637L224.656 290.139V290.138Z" fill="white"/>
<defs>
<clipPath id="clip0_18097_66143">
<rect width="6" height="6" fill="white" transform="matrix(1 0 0 -1 226.002 100.192)"/>
</clipPath>
<clipPath id="clip1_18097_66143">
<rect width="10.1921" height="10.1921" fill="white" transform="matrix(1 0 0 -1 151.541 151.291)"/>
</clipPath>
<clipPath id="clip2_18097_66143">
<rect width="6" height="6" fill="white" transform="matrix(1 0 0 -1 120.984 314.192)"/>
</clipPath>
<clipPath id="clip3_18097_66143">
<rect width="5.09605" height="5.09605" fill="white" transform="matrix(1 0 0 -1 131.432 377.791)"/>
</clipPath>
<clipPath id="clip4_18097_66143">
<rect width="8.91808" height="8.91808" fill="white" transform="matrix(1 0 0 -1 172.002 340.192)"/>
</clipPath>
<clipPath id="clip5_18097_66143">
<rect width="7.64407" height="7.64407" fill="white" transform="matrix(1 0 0 -1 34.332 269.774)"/>
</clipPath>
<clipPath id="clip6_18097_66143">
<rect width="7.64407" height="7.64407" fill="white" transform="matrix(1 0 0 -1 232.002 419.192)"/>
</clipPath>
</defs>
</svg>
